<?xml version="1.0" encoding="UTF-8" standalone="no"?>
<svg
   xmlns:dc="http://purl.org/dc/elements/1.1/"
   xmlns:cc="http://creativecommons.org/ns#"
   xmlns:rdf="http://www.w3.org/1999/02/22-rdf-syntax-ns#"
   xmlns:svg="http://www.w3.org/2000/svg"
   xmlns="http://www.w3.org/2000/svg"
   xmlns:sodipodi="http://sodipodi.sourceforge.net/DTD/sodipodi-0.dtd"
   xmlns:inkscape="http://www.inkscape.org/namespaces/inkscape"
   inkscape:version="1.0 (4035a4fb49, 2020-05-01)"
   sodipodi:docname="down-arrow.svg"
   xml:space="preserve"
   style="enable-background:new 0 0 490.4 490.4;"
   viewBox="0 0 490.4 490.4"
   y="0px"
   x="0px"
   id="Capa_1"
   version="1.1"><metadata
   id="metadata45"><rdf:RDF><cc:Work
       rdf:about=""><dc:format>image/svg+xml</dc:format><dc:type
         rdf:resource="http://purl.org/dc/dcmitype/StillImage" /></cc:Work></rdf:RDF></metadata><defs
   id="defs43" /><sodipodi:namedview
   inkscape:current-layer="Capa_1"
   inkscape:window-maximized="1"
   inkscape:window-y="-8"
   inkscape:window-x="-8"
   inkscape:cy="275.63665"
   inkscape:cx="902.92458"
   inkscape:zoom="0.32731085"
   showgrid="false"
   id="namedview41"
   inkscape:window-height="705"
   inkscape:window-width="1366"
   inkscape:pageshadow="2"
   inkscape:pageopacity="0"
   guidetolerance="10"
   gridtolerance="10"
   objecttolerance="10"
   borderopacity="1"
   bordercolor="#666666"
   pagecolor="#ffffff" />
<g
   style="fill:#ffffff"
   id="g8">
	<g
   style="fill:#ffffff"
   id="g6">
		<path
   style="fill:#ffffff"
   id="path2"
   d="M 490.4,245.2 C 490.4,110 380.4,0 245.2,0 110,0 0,110 0,245.2 c 0,135.2 110,245.2 245.2,245.2 135.2,0 245.2,-110 245.2,-245.2 z m -465.9,0 c 0,-121.7 99,-220.7 220.7,-220.7 121.7,0 220.7,99 220.7,220.7 0,121.7 -99,220.7 -220.7,220.7 -121.7,0 -220.7,-99 -220.7,-220.7 z" />
		<path
   style="fill:#ffffff"
   id="path4"
   d="m 253.9,360.4 68.9,-68.9 c 4.8,-4.8 4.8,-12.5 0,-17.3 -4.8,-4.8 -12.5,-4.8 -17.3,0 l -48,48 V 138.7 c 0,-6.8 -5.5,-12.3 -12.3,-12.3 -6.8,0 -12.3,5.5 -12.3,12.3 v 183.4 l -48,-48 c -4.8,-4.8 -12.5,-4.8 -17.3,0 -4.8,4.8 -4.8,12.5 0,17.3 l 68.9,68.9 c 2.4,2.4 5.5,3.6 8.7,3.6 3.2,0 6.3,-1.1 8.7,-3.5 z" />
	</g>
</g>
<g
   id="g10">
</g>
<g
   id="g12">
</g>
<g
   id="g14">
</g>
<g
   id="g16">
</g>
<g
   id="g18">
</g>
<g
   id="g20">
</g>
<g
   id="g22">
</g>
<g
   id="g24">
</g>
<g
   id="g26">
</g>
<g
   id="g28">
</g>
<g
   id="g30">
</g>
<g
   id="g32">
</g>
<g
   id="g34">
</g>
<g
   id="g36">
</g>
<g
   id="g38">
</g>
</svg>
