<?xml version="1.0" encoding="utf-8"?>
<!-- Generator: Adobe Illustrator 25.0.0, SVG Export Plug-In . SVG Version: 6.00 Build 0)  -->
<svg version="1.1" id="Capa_1" xmlns="http://www.w3.org/2000/svg" xmlns:xlink="http://www.w3.org/1999/xlink" x="0px" y="0px"
	 viewBox="0 0 480 480" style="enable-background:new 0 0 480 480;" xml:space="preserve">
<style type="text/css">
	.st0{fill:#FFFFFF;}
</style>
<g>
	<g>
		<path class="st0" d="M240,0C107.5,0,0,107.5,0,240s107.5,240,240,240s240-107.5,240-240C479.9,107.5,372.5,0.2,240,0z M240,464
			C116.3,464,16,363.7,16,240S116.3,16,240,16s224,100.3,224,224C463.9,363.7,363.7,463.9,240,464z"/>
	</g>
</g>
<g>
	<g>
		<path class="st0" d="M240,40C129.5,40,40,129.5,40,240s89.5,200,200,200s200-89.5,200-200C439.9,129.6,350.4,40.1,240,40z
			 M240,424c-101.6,0-184-82.4-184-184S138.4,56,240,56s184,82.4,184,184C423.9,341.6,341.6,423.9,240,424z"/>
	</g>
</g>
<g>
	<g>
		<rect x="232" y="80" class="st0" width="16" height="16"/>
	</g>
</g>
<g>
	<g>
		<rect x="232" y="384" class="st0" width="16" height="16"/>
	</g>
</g>
<g>
	<g>
		<rect x="156" y="100.4" transform="matrix(0.866 -0.5001 0.5001 0.866 -32.2157 96.5395)" class="st0" width="16" height="16"/>
	</g>
</g>
<g>
	<g>
		<rect x="308" y="363.6" transform="matrix(0.866 -0.5001 0.5001 0.866 -143.4899 207.8258)" class="st0" width="16" height="16"/>
	</g>
</g>
<g>
	<g>
		<rect x="100.4" y="156" transform="matrix(0.5 -0.866 0.866 0.5 -87.85 175.8374)" class="st0" width="16" height="16"/>
	</g>
</g>
<g>
	<g>
		<rect x="363.6" y="308" transform="matrix(0.5 -0.866 0.866 0.5 -87.8885 479.8235)" class="st0" width="16" height="16"/>
	</g>
</g>
<g>
	<g>
		<rect x="80" y="232" class="st0" width="16" height="16"/>
	</g>
</g>
<g>
	<g>
		<rect x="384" y="232" class="st0" width="16" height="16"/>
	</g>
</g>
<g>
	<g>
		
			<rect x="100.4" y="308" transform="matrix(0.8661 -0.4999 0.4999 0.8661 -143.4613 96.4871)" class="st0" width="16" height="16"/>
	</g>
</g>
<g>
	<g>
		<rect x="363.6" y="156" transform="matrix(0.866 -0.5 0.5 0.866 -32.2145 207.7764)" class="st0" width="16" height="16"/>
	</g>
</g>
<g>
	<g>
		
			<rect x="155.9" y="363.6" transform="matrix(0.5001 -0.866 0.866 0.5001 -239.853 327.7278)" class="st0" width="16" height="16"/>
	</g>
</g>
<g>
	<g>
		<rect x="308" y="100.4" transform="matrix(0.5001 -0.866 0.866 0.5001 64.0975 327.8037)" class="st0" width="16" height="16"/>
	</g>
</g>
<g>
	<g>
		<path class="st0" d="M232,112v123.5l-76.1,45.7l8.2,13.7l80-48c2.4-1.4,3.9-4,3.9-6.9V112H232z"/>
	</g>
</g>
</svg>
